<svg width={30} height={30} viewBox="0 0 30 30" fill="none" xmlns="http://www.w3.org/2000/svg">
  <path d="M29.7273 14.8636C29.7273 6.65454 23.0727 0 14.8636 0C6.65454 0 0 6.65454 0 14.8636C0 22.2818 5.43409 28.4318 12.5386 29.5432V19.1591H8.76818V14.8636H12.5386V11.5909C12.5386 7.86818 14.7545 5.80909 18.15 5.80909C19.7795 5.80909 21.4773 6.10227 21.4773 6.10227V9.75682H19.6023C17.7545 9.75682 17.1818 10.9023 17.1818 12.075V14.8636H21.3068L20.6455 19.1591H17.1818V29.5432C24.2864 28.425 29.7205 22.2818 29.7205 14.8636H29.7273Z" fill="white" />
  <path d="M20.6449 19.1591L21.3062 14.8636H17.1812V12.075C17.1812 10.9023 17.7539 9.75681 19.6017 9.75681H21.4767V6.10226C21.4767 6.10226 19.7789 5.80908 18.1494 5.80908C14.7539 5.80908 12.538 7.86817 12.538 11.5909V14.8636H8.76758V19.1591H12.538V29.5432C13.2949 29.6591 14.0721 29.7204 14.863 29.7204C15.6539 29.7204 16.4312 29.6591 17.188 29.5432V19.1591H20.6517H20.6449Z" fill="#212529" />
</svg>
