<svg width={31} height={30} viewBox="0 0 31 30" fill="none" xmlns="http://www.w3.org/2000/svg">
  <path d="M15.5902 29.7273C23.7992 29.7273 30.4538 23.0726 30.4538 14.8636C30.4538 6.65468 23.7992 0 15.5902 0C7.38124 0 0.726562 6.65468 0.726562 14.8636C0.726562 23.0726 7.38124 29.7273 15.5902 29.7273Z" fill="white" />
  <path d="M15.5909 7.19288C18.0863 7.19288 18.3863 7.1997 19.375 7.24743C20.2886 7.28833 20.7795 7.43833 21.1136 7.56788C21.55 7.73833 21.8636 7.94288 22.1909 8.27015C22.5181 8.59743 22.7227 8.91106 22.8931 9.34743C23.0227 9.6747 23.1727 10.1724 23.2136 11.0861C23.2613 12.0747 23.2681 12.3679 23.2681 14.8702C23.2681 17.3724 23.2613 17.6656 23.2136 18.6542C23.1727 19.5679 23.0227 20.0588 22.8931 20.3929C22.7227 20.8292 22.5181 21.1429 22.1909 21.4702C21.8636 21.7974 21.55 22.002 21.1136 22.1724C20.7863 22.302 20.2886 22.452 19.375 22.4929C18.3863 22.5406 18.0931 22.5474 15.5909 22.5474C13.0886 22.5474 12.7954 22.5406 11.8068 22.4929C10.8931 22.452 10.4022 22.302 10.0681 22.1724C9.63178 22.002 9.31815 21.7974 8.99087 21.4702C8.6636 21.1429 8.45906 20.8292 8.2886 20.3929C8.15906 20.0656 8.00906 19.5679 7.96815 18.6542C7.92042 17.6656 7.9136 17.3724 7.9136 14.8702C7.9136 12.3679 7.92042 12.0747 7.96815 11.0861C8.00906 10.1724 8.15906 9.68152 8.2886 9.34743C8.45906 8.91106 8.6636 8.59743 8.99087 8.27015C9.31815 7.94288 9.63178 7.73833 10.0681 7.56788C10.3954 7.43833 10.8931 7.28833 11.8068 7.24743C12.7954 7.1997 13.0886 7.19288 15.5909 7.19288ZM15.5909 5.50879C13.0477 5.50879 12.7341 5.52243 11.7318 5.56333C10.7363 5.61106 10.0545 5.76788 9.46133 5.9997C8.84769 6.23833 8.32269 6.55879 7.80451 7.07697C7.28632 7.59515 6.96587 8.12015 6.72724 8.73379C6.49542 9.32697 6.3386 10.0088 6.29087 11.0042C6.24315 11.9997 6.23633 12.3202 6.23633 14.8633C6.23633 17.4065 6.24997 17.7202 6.29087 18.7224C6.3386 19.7179 6.49542 20.3997 6.72724 20.9929C6.96587 21.6065 7.28632 22.1315 7.80451 22.6497C8.32269 23.1679 8.84769 23.4883 9.46133 23.727C10.0545 23.9588 10.7363 24.1156 11.7318 24.1633C12.7272 24.2111 13.0477 24.2179 15.5909 24.2179C18.1341 24.2179 18.4477 24.2042 19.45 24.1633C20.4454 24.1156 21.1272 23.9588 21.7204 23.727C22.3341 23.4883 22.8591 23.1679 23.3772 22.6497C23.8954 22.1315 24.2159 21.6065 24.4545 20.9929C24.6863 20.3997 24.8431 19.7179 24.8909 18.7224C24.9386 17.727 24.9454 17.4065 24.9454 14.8633C24.9454 12.3202 24.9318 12.0065 24.8909 11.0042C24.8431 10.0088 24.6863 9.32697 24.4545 8.73379C24.2159 8.12015 23.8954 7.59515 23.3772 7.07697C22.8591 6.55879 22.3341 6.23833 21.7204 5.9997C21.1272 5.76788 20.4454 5.61106 19.45 5.56333C18.4545 5.51561 18.1341 5.50879 15.5909 5.50879Z" fill="#212529" />
  <path d="M15.59 10.0566C12.9378 10.0566 10.7832 12.2112 10.7832 14.8635C10.7832 17.5157 12.9378 19.6703 15.59 19.6703C18.2423 19.6703 20.3968 17.5157 20.3968 14.8635C20.3968 12.2112 18.2423 10.0566 15.59 10.0566ZM15.59 17.9794C13.865 17.9794 12.4673 16.5816 12.4673 14.8566C12.4673 13.1316 13.865 11.7339 15.59 11.7339C17.315 11.7339 18.7127 13.1316 18.7127 14.8566C18.7127 16.5816 17.315 17.9794 15.59 17.9794Z" fill="#212529" />
  <path d="M20.5898 10.9907C21.2112 10.9907 21.7148 10.487 21.7148 9.86572C21.7148 9.2444 21.2112 8.74072 20.5898 8.74072C19.9685 8.74072 19.4648 9.2444 19.4648 9.86572C19.4648 10.487 19.9685 10.9907 20.5898 10.9907Z" fill="#212529" />
</svg>
