<svg width={31} height={30} viewBox="0 0 31 30" fill="none" xmlns="http://www.w3.org/2000/svg">
  <path d="M15.3168 29.7273C23.5257 29.7273 30.1804 23.0726 30.1804 14.8636C30.1804 6.65468 23.5257 0 15.3168 0C7.1078 0 0.453125 6.65468 0.453125 14.8636C0.453125 23.0726 7.1078 29.7273 15.3168 29.7273Z" fill="white" />
  <path d="M24.8078 10.091C24.5828 9.23876 23.9078 8.56376 23.0556 8.33876C21.5078 7.92285 15.3101 7.92285 15.3101 7.92285C15.3101 7.92285 9.11239 7.92285 7.56467 8.33876C6.71239 8.56376 6.03739 9.23876 5.81239 10.091C5.39648 11.6388 5.39648 14.8638 5.39648 14.8638C5.39648 14.8638 5.39648 18.0888 5.81239 19.6365C6.03739 20.4888 6.71239 21.1638 7.56467 21.3888C9.11239 21.8047 15.3101 21.8047 15.3101 21.8047C15.3101 21.8047 21.5078 21.8047 23.0556 21.3888C23.9078 21.1638 24.5828 20.4888 24.8078 19.6365C25.2238 18.0888 25.2238 14.8638 25.2238 14.8638C25.2238 14.8638 25.2238 11.6388 24.8078 10.091ZM13.3328 17.8365V11.891L18.4806 14.8638L13.3328 17.8365Z" fill="#212529" />
</svg>
